<?xml version="1.0" encoding="us-ascii" standalone="no"?><svg xmlns="http://www.w3.org/2000/svg" xmlns:xlink="http://www.w3.org/1999/xlink" contentStyleType="text/css" height="471px" preserveAspectRatio="none" style="width:898px;height:471px;background:#FFFFFF;" version="1.1" viewBox="0 0 898 471" width="898px" zoomAndPan="magnify"><defs/><g><rect fill="none" height="207.2109" style="stroke:#000000;stroke-width:1.5;" width="881" x="10" y="211.9609"/><line style="stroke:#181818;stroke-width:0.5;stroke-dasharray:5.0,5.0;" x1="48" x2="48" y1="36.2969" y2="436.1719"/><line style="stroke:#181818;stroke-width:0.5;stroke-dasharray:5.0,5.0;" x1="191.5" x2="191.5" y1="36.2969" y2="436.1719"/><line style="stroke:#181818;stroke-width:0.5;stroke-dasharray:5.0,5.0;" x1="448" x2="448" y1="36.2969" y2="436.1719"/><line style="stroke:#181818;stroke-width:0.5;stroke-dasharray:5.0,5.0;" x1="705" x2="705" y1="36.2969" y2="436.1719"/><line style="stroke:#181818;stroke-width:0.5;stroke-dasharray:5.0,5.0;" x1="818" x2="818" y1="36.2969" y2="436.1719"/><rect fill="#E2E2F0" height="30.2969" rx="2.5" ry="2.5" style="stroke:#181818;stroke-width:0.5;" width="57" x="20" y="5"/><text fill="#000000" font-family="sans-serif" font-size="14" lengthAdjust="spacing" textLength="43" x="27" y="24.9951">Client</text><rect fill="#E2E2F0" height="30.2969" rx="2.5" ry="2.5" style="stroke:#181818;stroke-width:0.5;" width="57" x="20" y="435.1719"/><text fill="#000000" font-family="sans-serif" font-size="14" lengthAdjust="spacing" textLength="43" x="27" y="455.167">Client</text><rect fill="#E2E2F0" height="30.2969" rx="2.5" ry="2.5" style="stroke:#181818;stroke-width:0.5;" width="128" x="127.5" y="5"/><text fill="#000000" font-family="sans-serif" font-size="14" lengthAdjust="spacing" textLength="114" x="134.5" y="24.9951">TransactionsAPI</text><rect fill="#E2E2F0" height="30.2969" rx="2.5" ry="2.5" style="stroke:#181818;stroke-width:0.5;" width="128" x="127.5" y="435.1719"/><text fill="#000000" font-family="sans-serif" font-size="14" lengthAdjust="spacing" textLength="114" x="134.5" y="455.167">TransactionsAPI</text><rect fill="#E2E2F0" height="30.2969" rx="2.5" ry="2.5" style="stroke:#181818;stroke-width:0.5;" width="81" x="408" y="5"/><text fill="#000000" font-family="sans-serif" font-size="14" lengthAdjust="spacing" textLength="67" x="415" y="24.9951">LimitsAPI</text><rect fill="#E2E2F0" height="30.2969" rx="2.5" ry="2.5" style="stroke:#181818;stroke-width:0.5;" width="81" x="408" y="435.1719"/><text fill="#000000" font-family="sans-serif" font-size="14" lengthAdjust="spacing" textLength="67" x="415" y="455.167">LimitsAPI</text><rect fill="#E2E2F0" height="30.2969" rx="2.5" ry="2.5" style="stroke:#181818;stroke-width:0.5;" width="79" x="666" y="5"/><text fill="#000000" font-family="sans-serif" font-size="14" lengthAdjust="spacing" textLength="65" x="673" y="24.9951">LimitsDB</text><rect fill="#E2E2F0" height="30.2969" rx="2.5" ry="2.5" style="stroke:#181818;stroke-width:0.5;" width="79" x="666" y="435.1719"/><text fill="#000000" font-family="sans-serif" font-size="14" lengthAdjust="spacing" textLength="65" x="673" y="455.167">LimitsDB</text><rect fill="#E2E2F0" height="30.2969" rx="2.5" ry="2.5" style="stroke:#181818;stroke-width:0.5;" width="126" x="755" y="5"/><text fill="#000000" font-family="sans-serif" font-size="14" lengthAdjust="spacing" textLength="112" x="762" y="24.9951">TransactionsDB</text><rect fill="#E2E2F0" height="30.2969" rx="2.5" ry="2.5" style="stroke:#181818;stroke-width:0.5;" width="126" x="755" y="435.1719"/><text fill="#000000" font-family="sans-serif" font-size="14" lengthAdjust="spacing" textLength="112" x="762" y="455.167">TransactionsDB</text><polygon fill="#181818" points="179.5,63.4297,189.5,67.4297,179.5,71.4297,183.5,67.4297" style="stroke:#181818;stroke-width:1.0;"/><line style="stroke:#181818;stroke-width:1.0;" x1="48.5" x2="185.5" y1="67.4297" y2="67.4297"/><text fill="#000000" font-family="sans-serif" font-size="13" lengthAdjust="spacing" textLength="107" x="55.5" y="62.3638">Post Transaction</text><polygon fill="#181818" points="436.5,92.5625,446.5,96.5625,436.5,100.5625,440.5,96.5625" style="stroke:#181818;stroke-width:1.0;"/><line style="stroke:#181818;stroke-width:1.0;" x1="191.5" x2="442.5" y1="96.5625" y2="96.5625"/><text fill="#000000" font-family="sans-serif" font-size="13" lengthAdjust="spacing" textLength="233" x="198.5" y="91.4966">Get limits for 'from' account number</text><polygon fill="#181818" points="693.5,121.6953,703.5,125.6953,693.5,129.6953,697.5,125.6953" style="stroke:#181818;stroke-width:1.0;"/><line style="stroke:#181818;stroke-width:1.0;" x1="448.5" x2="699.5" y1="125.6953" y2="125.6953"/><text fill="#000000" font-family="sans-serif" font-size="13" lengthAdjust="spacing" textLength="233" x="455.5" y="120.6294">Get limits for 'from' account number</text><polygon fill="#181818" points="202.5,150.8281,192.5,154.8281,202.5,158.8281,198.5,154.8281" style="stroke:#181818;stroke-width:1.0;"/><line style="stroke:#181818;stroke-width:1.0;stroke-dasharray:2.0,2.0;" x1="196.5" x2="447.5" y1="154.8281" y2="154.8281"/><text fill="#000000" font-family="sans-serif" font-size="13" lengthAdjust="spacing" textLength="210" x="208.5" y="149.7622">Limits for 'from' account number</text><line style="stroke:#181818;stroke-width:1.0;" x1="191.5" x2="233.5" y1="183.9609" y2="183.9609"/><line style="stroke:#181818;stroke-width:1.0;" x1="233.5" x2="233.5" y1="183.9609" y2="196.9609"/><line style="stroke:#181818;stroke-width:1.0;" x1="192.5" x2="233.5" y1="196.9609" y2="196.9609"/><polygon fill="#181818" points="202.5,192.9609,192.5,196.9609,202.5,200.9609,198.5,196.9609" style="stroke:#181818;stroke-width:1.0;"/><text fill="#000000" font-family="sans-serif" font-size="13" lengthAdjust="spacing" textLength="165" x="198.5" y="178.895">Verify amount with Limits</text><path d="M10,211.9609 L76,211.9609 L76,219.0938 L66,229.0938 L10,229.0938 L10,211.9609 " fill="#EEEEEE" style="stroke:#000000;stroke-width:1.5;"/><rect fill="none" height="207.2109" style="stroke:#000000;stroke-width:1.5;" width="881" x="10" y="211.9609"/><text fill="#000000" font-family="sans-serif" font-size="13" font-weight="bold" lengthAdjust="spacing" textLength="21" x="25" y="225.0278">alt</text><text fill="#000000" font-family="sans-serif" font-size="11" font-weight="bold" lengthAdjust="spacing" textLength="249" x="91" y="224.1714">[Transaction amount is within limits]</text><polygon fill="#181818" points="806,246.2266,816,250.2266,806,254.2266,810,250.2266" style="stroke:#181818;stroke-width:1.0;"/><line style="stroke:#181818;stroke-width:1.0;stroke-dasharray:2.0,2.0;" x1="191.5" x2="812" y1="250.2266" y2="250.2266"/><text fill="#000000" font-family="sans-serif" font-size="13" lengthAdjust="spacing" textLength="108" x="198.5" y="245.1606">Save transaction</text><polygon fill="#181818" points="59.5,275.3594,49.5,279.3594,59.5,283.3594,55.5,279.3594" style="stroke:#181818;stroke-width:1.0;"/><line style="stroke:#181818;stroke-width:1.0;" x1="53.5" x2="190.5" y1="279.3594" y2="279.3594"/><text fill="#000000" font-family="sans-serif" font-size="13" lengthAdjust="spacing" textLength="46" x="65.5" y="274.2935">200 OK</text><line style="stroke:#000000;stroke-width:1.0;stroke-dasharray:2.0,2.0;" x1="10" x2="891" y1="288.3594" y2="288.3594"/><text fill="#000000" font-family="sans-serif" font-size="11" font-weight="bold" lengthAdjust="spacing" textLength="215" x="15" y="298.5698">[Transaction amount is too big]</text><polygon fill="#181818" points="59.5,319.2969,49.5,323.2969,59.5,327.2969,55.5,323.2969" style="stroke:#181818;stroke-width:1.0;"/><line style="stroke:#181818;stroke-width:1.0;" x1="53.5" x2="190.5" y1="323.2969" y2="323.2969"/><text fill="#000000" font-family="sans-serif" font-size="13" lengthAdjust="spacing" textLength="119" x="65.5" y="318.231">400 BAD REQUEST</text><line style="stroke:#000000;stroke-width:1.0;stroke-dasharray:2.0,2.0;" x1="10" x2="891" y1="332.2969" y2="332.2969"/><text fill="#000000" font-family="sans-serif" font-size="11" font-weight="bold" lengthAdjust="spacing" textLength="230" x="15" y="342.5073">[Transaction amount is too small]</text><polygon fill="#181818" points="59.5,363.2344,49.5,367.2344,59.5,371.2344,55.5,367.2344" style="stroke:#181818;stroke-width:1.0;"/><line style="stroke:#181818;stroke-width:1.0;" x1="53.5" x2="190.5" y1="367.2344" y2="367.2344"/><text fill="#000000" font-family="sans-serif" font-size="13" lengthAdjust="spacing" textLength="119" x="65.5" y="362.1685">400 BAD REQUEST</text><line style="stroke:#000000;stroke-width:1.0;stroke-dasharray:2.0,2.0;" x1="10" x2="891" y1="376.2344" y2="376.2344"/><text fill="#000000" font-family="sans-serif" font-size="11" font-weight="bold" lengthAdjust="spacing" textLength="183" x="15" y="386.4448">[Any other form of failure]</text><polygon fill="#181818" points="59.5,407.1719,49.5,411.1719,59.5,415.1719,55.5,411.1719" style="stroke:#181818;stroke-width:1.0;"/><line style="stroke:#181818;stroke-width:1.0;" x1="53.5" x2="190.5" y1="411.1719" y2="411.1719"/><text fill="#000000" font-family="sans-serif" font-size="13" lengthAdjust="spacing" textLength="119" x="65.5" y="406.106">500 BAD REQUEST</text><!--SRC=[dP5BJm9148Jl_Ilgnic46Brm85aU8KOI4T3xiFP09_D8PcOr_7jsHrI4rOqcS-b9rTVTrMCZx1AkXbW7vQ8gatWNYyNT00iVq-alqPcaSSt5IdhNppZ1v1BQ1_HqyBO7LPQ-gZkuocuu47qQljoJqJ_CRHFFEm4j6rnGdZc8taFPx7oJj3k2YPJvbiY7HcAMYJkkG43zBdgTDMlMNgbNHZh9kCKsn3WVQO3hVXyFzqHi8lymH_8U6zdIxw2R6ZGg9bXE7v-cgtKdCLfbp1-PTGQPMhWzVDfnQEvYuJMq4bC5xk3Tjl3Som40]--></g></svg>